<svg id="Calque_1" data-name="Calque 1" xmlns="http://www.w3.org/2000/svg" width="97.91" height="69.96" viewBox="0 0 97.91 69.96">
  <g>
    <path d="M28.44,69.84c.77-1.35,1.47-2.6,2.19-3.83q3.92-6.69,7.83-13.37c1.11-1.9,2.27-3.78,3.38-5.68,1-1.67,1.94-3.36,2.92-5,1.91-3.25,3.84-6.49,5.75-9.74Q54.28,25.78,58,19.35q3.18-5.44,6.37-10.88C66,5.76,67.61,3.07,69.2.36A.78.78,0,0,1,70-.08H97.45c.15,0,.29,0,.55,0-.24.43-.43.81-.65,1.17C96.22,3,95.08,4.92,94,6.82c-1,1.72-2,3.47-3,5.19-2.21,3.79-4.45,7.58-6.67,11.36L78.08,34q-3.33,5.64-6.65,11.3c-.32.53-.67,1-1,1.57a4.82,4.82,0,0,0-.28.59H92c-.46.83-.85,1.55-1.27,2.25-.77,1.29-1.58,2.56-2.34,3.86C87,55.9,85.63,58.3,84.25,60.68c-1.7,2.92-3.43,5.81-5.14,8.72a.87.87,0,0,1-.86.49H29.07C28.9,69.88,28.74,69.86,28.44,69.84Z" transform="translate(-0.09 0.08)"/>
    <path d="M.09,0h.7q13.52,0,27,0a1.09,1.09,0,0,1,1.1.66c1,1.83,2.07,3.64,3.13,5.44,2.15,3.68,4.32,7.36,6.48,11s4.29,7.32,6.44,11c.62,1,1.22,2.09,1.9,3.08a1.26,1.26,0,0,1-.08,1.58c-.42.69-.78,1.41-1.2,2.1-.6,1-1.24,1.91-1.82,2.89-.68,1.14-1.31,2.31-2,3.46-.51.89-1,1.77-1.55,2.66-.29.5-.61,1-.9,1.48L36,51.12l-2.93,5c-.48-.75-1-1.47-1.41-2.22-1.85-3.18-3.68-6.37-5.53-9.55-2-3.51-4.11-7-6.16-10.49L13.17,22.31C11,18.69,8.92,15.06,6.78,11.43L2.12,3.55C1.45,2.41.8,1.27.09,0Z" transform="translate(-0.09 0.08)"/>
  </g>
</svg>
